Coordinates
version=1
nRows=21
nColumns=22
inDegrees=yes

Units are S.I. units (second, meters, Newtons, ...)
If the header above contains a line with 'inDegrees', this indicates whether rotational values are in degrees (yes) or radians (no).

endheader
time	pelvis_tilt	pelvis_list	pelvis_rotation	pelvis_tx	pelvis_ty	pelvis_tz	hip_flexion_r	hip_adduction_r	hip_rotation_r	knee_angle_r	ankle_angle_r	subtalar_angle_r	hip_flexion_l	hip_adduction_l	hip_rotation_l	knee_angle_l	ankle_angle_l	subtalar_angle_l	lumbar_extension	lumbar_bending	lumbar_rotation
      1.48000000	     -7.92615145	     -5.84729893	     15.84176054	     -0.86800936	      0.85188412	     -0.71223418	     29.62183805	      2.90086058	     -1.72304265	     -7.72947761	     -5.75981239	      2.56122600	     -7.00578175	     -3.21131161	      4.92223615	    -13.29158730	     22.04521605	      3.62044847	     -1.13380741	      5.72481243	      1.20912040
      1.49000000	     -8.00249166	     -6.22280299	     15.69432079	     -0.86136903	      0.85252715	     -0.71246840	     29.57871538	      3.47062528	     -1.50143782	     -8.10623229	     -5.62433203	      1.38371590	     -7.14450851	     -3.69023608	      4.88601057	    -13.53645572	     21.45951434	      3.95617309	     -1.03132823	      6.30734993	      1.34469200
      1.50000000	     -8.07373799	     -6.58412547	     15.51236251	     -0.85463009	      0.85338122	     -0.71268666	     29.52510607	      4.03402439	     -1.21539893	     -8.51819884	     -5.34424620	      0.42394359	     -7.27811881	     -4.14932531	      4.85534624	    -13.81338873	     20.77972068	      4.31212802	     -0.94654489	      6.88748957	      1.49103076
      1.51000000	     -8.15303977	     -6.91671823	     15.31753591	     -0.84780044	      0.85441368	     -0.71294116	     29.44375544	      4.55963323	     -0.89365578	     -8.91641310	     -4.95972610	     -0.31377656	     -7.39183154	     -4.57052821	      4.85889934	    -14.12253783	     19.99428019	      4.70033853	     -0.86029119	      7.44702434	      1.62222387
      1.52000000	     -8.23928132	     -7.21086262	     15.11076043	     -0.84086566	      0.85559086	     -0.71320964	     29.32393850	      5.04262833	     -0.54864577	     -9.28807183	     -4.48429795	     -0.81783185	     -7.48460542	     -4.94688413	      4.86785287	    -14.47205624	     19.12648691	      5.10997735	     -0.77357148	      7.96988531	      1.73338855
      1.53000000	     -8.34995050	     -7.45221838	     14.92098911	     -0.83384989	      0.85686610	     -0.71357165	     29.15848503	      5.44659426	     -0.21267522	     -9.58793612	     -3.96663288	     -1.16361750	     -7.53170157	     -5.25932417	      4.93296680	    -14.86744214	     18.16061501	      5.57585949	     -0.66177636	      8.43943006	      1.79981111
      1.54000000	     -8.48553409	     -7.62700346	     14.74872003	     -0.82674626	      0.85820630	     -0.71401121	     28.95158085	      5.76336586	      0.10287622	     -9.82672925	     -3.41384243	     -1.36945819	     -7.53614256	     -5.49576628	      5.03977781	    -15.30552229	     17.10574538	      6.07104046	     -0.52426709	      8.83615211	      1.82504240
      1.55000000	     -8.65007420	     -7.73727485	     14.61111825	     -0.81957208	      0.85957240	     -0.71455063	     28.70042181	      5.98833720	      0.38817651	     -9.98206173	     -2.86000559	     -1.51040832	     -7.47766883	     -5.66096022	      5.18933006	    -15.80537814	     15.97394737	      6.63612549	     -0.34920112	      9.16158625	      1.78063972
      1.56000000	     -8.83964784	     -7.77636965	     14.50698139	     -0.81233176	      0.86093735	     -0.71518944	     28.40953962	      6.11922625	      0.63219357	    -10.06801718	     -2.30290887	     -1.62372449	     -7.35848971	     -5.74957413	      5.37159088	    -16.37237970	     14.77253800	      7.27241330	     -0.14081518	      9.40757563	      1.68888259
      1.57000000	     -9.05019084	     -7.76326712	     14.43132109	     -0.80501883	      0.86227433	     -0.71590999	     28.09039304	      6.18057855	      0.82377040	    -10.09868206	     -1.77355915	     -1.75072628	     -7.17582547	     -5.78594704	      5.55478273	    -17.01050458	     13.49869940	      8.04079098	      0.10430105	      9.59541314	      1.55584529
      1.58000000	     -9.27185066	     -7.65704512	     14.39708756	     -0.79768363	      0.86358922	     -0.71675021	     27.73038135	      6.12909783	      0.98898103	    -10.08689395	     -1.21827132	     -1.89708000	     -6.93924742	     -5.72477179	      5.77921693	    -17.73024580	     12.16062815	      8.86310794	      0.36107339	      9.68197132	      1.37107460
      1.59000000	     -9.49671949	     -7.49688806	     14.39093356	     -0.79030358	      0.86486367	     -0.71767168	     27.33652126	      6.01238515	      1.10637346	    -10.03644218	     -0.67505166	     -2.08075891	     -6.64376544	     -5.61319616	      5.99279975	    -18.54260348	     10.76583689	      9.83550699	      0.63267876	      9.70897876	      1.17463373
      1.60000000	     -9.71116228	     -7.27669819	     14.40379164	     -0.78289981	      0.86609953	     -0.71867381	     26.90872162	      5.82971620	      1.19537357	     -9.97540436	     -0.11012558	     -2.28940212	     -6.30109995	     -5.44501751	      6.18819142	    -19.45633295	      9.33776683	     10.94260379	      0.89702814	      9.67463046	      0.96611536
      1.61000000	     -9.90335064	     -7.02308597	     14.42749581	     -0.77547448	      0.86730101	     -0.71972891	     26.44836035	      5.61462109	      1.26172632	     -9.91203329	      0.44579662	     -2.51953902	     -5.91136163	     -5.25409190	      6.33449164	    -20.47957351	      7.87692803	     12.26016414	      1.14656114	      9.60977037	      0.76692714
      1.62000000	    -10.05880655	     -6.75655367	     14.44795601	     -0.76802685	      0.86846780	     -0.72080662	     25.95500511	      5.39599748	      1.31449369	     -9.86165830	      0.99385050	     -2.75434590	     -5.47983533	     -5.06773097	      6.40478186	    -21.62449879	      6.40899988	     13.80516179	      1.36623791	      9.53931420	      0.59008518
      1.63000000	    -10.17291001	     -6.46307165	     14.46541996	     -0.76059211	      0.86959983	     -0.72190415	     25.43487758	      5.16000646	      1.37142700	     -9.85105612	      1.57961651	     -2.97322958	     -5.00515210	     -4.87064895	      6.41422947	    -22.90302862	      4.97194522	     15.55388601	      1.54187293	      9.44568589	      0.44186488
      1.64000000	    -10.23742290	     -6.16927621	     14.47017882	     -0.75317123	      0.87069130	     -0.72298719	     24.88713539	      4.93878174	      1.42988329	     -9.87694640	      2.18325656	     -3.17365390	     -4.47980644	     -4.69935544	      6.33104971	    -24.33354896	      3.60439506	     17.55485950	      1.66855865	      9.35874828	      0.33124298
      1.65000000	    -10.24131775	     -5.91126393	     14.45874681	     -0.74574648	      0.87173729	     -0.72403129	     24.30814028	      4.77376133	      1.48692554	     -9.93776460	      2.79301534	     -3.35294486	     -3.90484598	     -4.60145496	      6.14529174	    -25.91752911	      2.32709129	     19.78636212	      1.74537861	      9.31898477	      0.26162509
      1.66000000	    -10.21981661	     -5.63149038	     14.41979148	     -0.73842565	      0.87268845	     -0.72498740	     23.76841313	      4.60390049	      1.56482929	    -10.11544137	      3.45896321	     -3.50469405	     -3.23684875	     -4.50704708	      5.86305763	    -27.68261330	      1.19368057	     22.12870429	      1.77796854	      9.24472328	      0.24414021
      1.67000000	    -10.10468613	     -5.43835521	     14.39551811	     -0.73112618	      0.87361320	     -0.72588943	     23.13606228	      4.54168712	      1.67297408	    -10.25116266	      4.08858606	     -3.64949156	     -2.51722020	     -4.56536271	      5.50199510	    -29.62943364	      0.26804543	     24.61683684	      1.73684842	      9.27756776	      0.19418199
      1.68000000	     -9.94212134	     -5.25808422	     14.35481636	     -0.72389659	      0.87446186	     -0.72667267	     22.49817622	      4.51444503	      1.75109654	    -10.44403753	      4.73829848	     -3.79613782	     -1.72540038	     -4.68927759	      5.04371148	    -31.73225584	     -0.47350989	     27.07215998	      1.64011926	      9.31032520	      0.20387699
